<?xml version="1.0" encoding="UTF-8" standalone="no"?>
<!DOCTYPE svg PUBLIC "-//W3C//DTD SVG 1.1//EN"
 "http://www.w3.org/Graphics/SVG/1.1/DTD/svg11.dtd">
<!-- Generated by graphviz version 2.43.0 (0)
 -->
<!-- Title: G Pages: 1 -->
<svg width="709pt" height="341pt"
 viewBox="0.00 0.00 709.38 340.97" xmlns="http://www.w3.org/2000/svg" xmlns:xlink="http://www.w3.org/1999/xlink">
<g id="graph0" class="graph" transform="scale(1 1) rotate(0) translate(4 336.97)">
<title>G</title><style>.edge>path:hover{stroke-width:8}</style>
<polygon fill="white" stroke="transparent" points="-4,4 -4,-336.97 705.38,-336.97 705.38,4 -4,4"/>
<!-- serial -->
<g id="node1" class="node">
<title>serial</title><style>.edge>path:hover{stroke-width:8}</style>
<ellipse fill="#c70505" stroke="black" cx="372.76" cy="-127" rx="27" ry="18"/>
<text text-anchor="middle" x="372.76" y="-124.5" font-family="Helvetica,sans-Serif" font-size="10.00" fill="#ffffff">serial</text>
</g>
<!-- streamQSB_py -->
<g id="node11" class="node">
<title>streamQSB_py</title><style>.edge>path:hover{stroke-width:8}</style>
<ellipse fill="#4e924e" stroke="black" cx="219.76" cy="-18" rx="50.75" ry="18"/>
<text text-anchor="middle" x="219.76" y="-15.5" font-family="Helvetica,sans-Serif" font-size="10.00" fill="#ffffff">streamQSB.py</text>
</g>
<!-- serial&#45;&gt;streamQSB_py -->
<g id="edge1" class="edge">
<title>serial&#45;&gt;streamQSB_py</title><style>.edge>path:hover{stroke-width:8}</style>
<path fill="none" stroke="black" d="M351.66,-115.42C346.82,-113.17 341.66,-110.9 336.76,-109 286.03,-89.33 235.99,-124.93 219.76,-73"/>
</g>
<!-- serial_serialcli -->
<g id="node2" class="node">
<title>serial_serialcli</title><style>.edge>path:hover{stroke-width:8}</style>
<ellipse fill="#ac4949" stroke="black" cx="314.76" cy="-209.99" rx="38.78" ry="21.43"/>
<text text-anchor="middle" x="314.76" y="-212.99" font-family="Helvetica,sans-Serif" font-size="10.00" fill="#ffffff">serial.</text>
<text text-anchor="middle" x="314.76" y="-201.99" font-family="Helvetica,sans-Serif" font-size="10.00" fill="#ffffff">serialcli</text>
</g>
<!-- serial_serialcli&#45;&gt;serial -->
<g id="edge2" class="edge">
<title>serial_serialcli&#45;&gt;serial</title><style>.edge>path:hover{stroke-width:8}</style>
<path fill="none" stroke="black" d="M328.51,-189.8C336.65,-178.43 347.03,-163.93 355.69,-151.83"/>
<polygon fill="#ac4949" stroke="black" points="358.66,-153.7 361.64,-143.53 352.97,-149.62 358.66,-153.7"/>
</g>
<!-- serial_serialjava -->
<g id="node3" class="node">
<title>serial_serialjava</title><style>.edge>path:hover{stroke-width:8}</style>
<ellipse fill="#ac4949" stroke="black" cx="417.76" cy="-209.99" rx="45.92" ry="21.43"/>
<text text-anchor="middle" x="417.76" y="-212.99" font-family="Helvetica,sans-Serif" font-size="10.00" fill="#ffffff">serial.</text>
<text text-anchor="middle" x="417.76" y="-201.99" font-family="Helvetica,sans-Serif" font-size="10.00" fill="#ffffff">serialjava</text>
</g>
<!-- serial_serialjava&#45;&gt;serial -->
<g id="edge3" class="edge">
<title>serial_serialjava&#45;&gt;serial</title><style>.edge>path:hover{stroke-width:8}</style>
<path fill="none" stroke="black" d="M406.64,-188.97C400.6,-178.1 393.08,-164.57 386.66,-153.01"/>
<polygon fill="#ac4949" stroke="black" points="389.71,-151.3 381.79,-144.26 383.59,-154.7 389.71,-151.3"/>
</g>
<!-- serial_serialposix -->
<g id="node4" class="node">
<title>serial_serialposix</title><style>.edge>path:hover{stroke-width:8}</style>
<ellipse fill="#ac4949" stroke="black" cx="530.76" cy="-209.99" rx="49.49" ry="21.43"/>
<text text-anchor="middle" x="530.76" y="-212.99" font-family="Helvetica,sans-Serif" font-size="10.00" fill="#ffffff">serial.</text>
<text text-anchor="middle" x="530.76" y="-201.99" font-family="Helvetica,sans-Serif" font-size="10.00" fill="#ffffff">serialposix</text>
</g>
<!-- serial_serialposix&#45;&gt;serial -->
<g id="edge4" class="edge">
<title>serial_serialposix&#45;&gt;serial</title><style>.edge>path:hover{stroke-width:8}</style>
<path fill="none" stroke="black" d="M499.92,-193.18C471.8,-178.77 430.53,-157.61 402.7,-143.34"/>
<polygon fill="#ac4949" stroke="black" points="403.95,-140.06 393.46,-138.61 400.76,-146.28 403.95,-140.06"/>
</g>
<!-- serial_serialutil -->
<g id="node5" class="node">
<title>serial_serialutil</title><style>.edge>path:hover{stroke-width:8}</style>
<ellipse fill="#e72222" stroke="black" cx="417.76" cy="-303.97" rx="41.94" ry="21.43"/>
<text text-anchor="middle" x="417.76" y="-306.97" font-family="Helvetica,sans-Serif" font-size="10.00" fill="#ffffff">serial.</text>
<text text-anchor="middle" x="417.76" y="-295.97" font-family="Helvetica,sans-Serif" font-size="10.00" fill="#ffffff">serialutil</text>
</g>
<!-- serial_serialutil&#45;&gt;serial -->
<g id="edge5" class="edge">
<title>serial_serialutil&#45;&gt;serial</title><style>.edge>path:hover{stroke-width:8}</style>
<path fill="none" stroke="black" d="M381.9,-292.78C341.6,-280.5 280.05,-259.04 266.76,-238.98 252.53,-217.5 253.21,-202.92 266.76,-181 267.88,-179.2 311.56,-157.72 342.49,-142.66"/>
<polygon fill="#e72222" stroke="black" points="344.15,-145.75 351.62,-138.23 341.09,-139.45 344.15,-145.75"/>
</g>
<!-- serial_serialutil&#45;&gt;serial_serialcli -->
<g id="edge6" class="edge">
<title>serial_serialutil&#45;&gt;serial_serialcli</title><style>.edge>path:hover{stroke-width:8}</style>
<path fill="none" stroke="black" d="M397.9,-285.24C382.08,-271.11 359.77,-251.18 342.24,-235.53"/>
<polygon fill="#e72222" stroke="black" points="344.35,-232.72 334.56,-228.67 339.69,-237.94 344.35,-232.72"/>
</g>
<!-- serial_serialutil&#45;&gt;serial_serialjava -->
<g id="edge7" class="edge">
<title>serial_serialutil&#45;&gt;serial_serialjava</title><style>.edge>path:hover{stroke-width:8}</style>
<path fill="none" stroke="black" d="M417.76,-282.56C417.76,-270.53 417.76,-255.08 417.76,-241.62"/>
<polygon fill="#e72222" stroke="black" points="421.26,-241.35 417.76,-231.35 414.26,-241.35 421.26,-241.35"/>
</g>
<!-- serial_serialutil&#45;&gt;serial_serialposix -->
<g id="edge8" class="edge">
<title>serial_serialutil&#45;&gt;serial_serialposix</title><style>.edge>path:hover{stroke-width:8}</style>
<path fill="none" stroke="black" d="M439.02,-285.67C456.36,-271.56 481.07,-251.44 500.49,-235.64"/>
<polygon fill="#e72222" stroke="black" points="502.9,-238.19 508.44,-229.16 498.48,-232.76 502.9,-238.19"/>
</g>
<!-- serial_serialwin32 -->
<g id="node6" class="node">
<title>serial_serialwin32</title><style>.edge>path:hover{stroke-width:8}</style>
<ellipse fill="#ac4949" stroke="black" cx="649.76" cy="-209.99" rx="51.74" ry="21.43"/>
<text text-anchor="middle" x="649.76" y="-212.99" font-family="Helvetica,sans-Serif" font-size="10.00" fill="#ffffff">serial.</text>
<text text-anchor="middle" x="649.76" y="-201.99" font-family="Helvetica,sans-Serif" font-size="10.00" fill="#ffffff">serialwin32</text>
</g>
<!-- serial_serialutil&#45;&gt;serial_serialwin32 -->
<g id="edge9" class="edge">
<title>serial_serialutil&#45;&gt;serial_serialwin32</title><style>.edge>path:hover{stroke-width:8}</style>
<path fill="none" stroke="black" d="M451.46,-291.17C486.15,-278.84 541.64,-258.58 588.76,-238.98 594.98,-236.4 601.5,-233.55 607.86,-230.7"/>
<polygon fill="#e72222" stroke="black" points="609.37,-233.86 617.03,-226.54 606.48,-227.48 609.37,-233.86"/>
</g>
<!-- serial_serialwin32&#45;&gt;serial -->
<g id="edge10" class="edge">
<title>serial_serialwin32&#45;&gt;serial</title><style>.edge>path:hover{stroke-width:8}</style>
<path fill="none" stroke="black" d="M618.25,-193.16C608.91,-188.84 598.55,-184.41 588.76,-181 526.78,-159.4 451.88,-143.11 408.54,-134.61"/>
<polygon fill="#ac4949" stroke="black" points="408.97,-131.13 398.49,-132.67 407.64,-138 408.97,-131.13"/>
</g>
<!-- serial_tools -->
<g id="node7" class="node">
<title>serial_tools</title><style>.edge>path:hover{stroke-width:8}</style>
<ellipse fill="#db2f2f" stroke="black" cx="149.76" cy="-127" rx="41.59" ry="18"/>
<text text-anchor="middle" x="149.76" y="-124.5" font-family="Helvetica,sans-Serif" font-size="10.00" fill="#ffffff">serial.tools</text>
</g>
<!-- serial_tools&#45;&gt;streamQSB_py -->
<g id="edge11" class="edge">
<title>serial_tools&#45;&gt;streamQSB_py</title><style>.edge>path:hover{stroke-width:8}</style>
<path fill="none" stroke="black" d="M183.33,-115.94C204.29,-107.51 226.17,-93.51 219.76,-73"/>
<path fill="none" stroke="black" d="M219.76,-72C217.21,-63.85 216.51,-54.64 216.66,-46.22"/>
<polygon fill="#db2f2f" stroke="black" points="220.16,-46.28 217.21,-36.1 213.17,-45.89 220.16,-46.28"/>
</g>
<!-- serial_tools_list_ports -->
<g id="node8" class="node">
<title>serial_tools_list_ports</title><style>.edge>path:hover{stroke-width:8}</style>
<ellipse fill="#9d4343" stroke="black" cx="175.76" cy="-209.99" rx="43.68" ry="28.98"/>
<text text-anchor="middle" x="175.76" y="-218.49" font-family="Helvetica,sans-Serif" font-size="10.00" fill="#ffffff">serial.</text>
<text text-anchor="middle" x="175.76" y="-207.49" font-family="Helvetica,sans-Serif" font-size="10.00" fill="#ffffff">tools.</text>
<text text-anchor="middle" x="175.76" y="-196.49" font-family="Helvetica,sans-Serif" font-size="10.00" fill="#ffffff">list_ports</text>
</g>
<!-- serial_tools_list_ports&#45;&gt;streamQSB_py -->
<g id="edge12" class="edge">
<title>serial_tools_list_ports&#45;&gt;streamQSB_py</title><style>.edge>path:hover{stroke-width:8}</style>
<path fill="none" stroke="black" d="M193.74,-183.47C210.69,-156.18 231.83,-111.61 219.76,-73"/>
</g>
<!-- serial_tools_list_ports_posix -->
<g id="node9" class="node">
<title>serial_tools_list_ports_posix</title><style>.edge>path:hover{stroke-width:8}</style>
<ellipse fill="#ac4949" stroke="black" cx="65.76" cy="-303.97" rx="65.52" ry="28.98"/>
<text text-anchor="middle" x="65.76" y="-312.47" font-family="Helvetica,sans-Serif" font-size="10.00" fill="#ffffff">serial.</text>
<text text-anchor="middle" x="65.76" y="-301.47" font-family="Helvetica,sans-Serif" font-size="10.00" fill="#ffffff">tools.</text>
<text text-anchor="middle" x="65.76" y="-290.47" font-family="Helvetica,sans-Serif" font-size="10.00" fill="#ffffff">list_ports_posix</text>
</g>
<!-- serial_tools_list_ports_posix&#45;&gt;serial_tools_list_ports -->
<g id="edge13" class="edge">
<title>serial_tools_list_ports_posix&#45;&gt;serial_tools_list_ports</title><style>.edge>path:hover{stroke-width:8}</style>
<path fill="none" stroke="black" d="M95.53,-278.08C109.59,-266.32 126.47,-252.21 141.11,-239.97"/>
<polygon fill="#ac4949" stroke="black" points="143.55,-242.49 148.98,-233.39 139.06,-237.12 143.55,-242.49"/>
</g>
<!-- serial_tools_list_ports_windows -->
<g id="node10" class="node">
<title>serial_tools_list_ports_windows</title><style>.edge>path:hover{stroke-width:8}</style>
<ellipse fill="#ac4949" stroke="black" cx="227.76" cy="-303.97" rx="77.56" ry="28.98"/>
<text text-anchor="middle" x="227.76" y="-312.47" font-family="Helvetica,sans-Serif" font-size="10.00" fill="#ffffff">serial.</text>
<text text-anchor="middle" x="227.76" y="-301.47" font-family="Helvetica,sans-Serif" font-size="10.00" fill="#ffffff">tools.</text>
<text text-anchor="middle" x="227.76" y="-290.47" font-family="Helvetica,sans-Serif" font-size="10.00" fill="#ffffff">list_ports_windows</text>
</g>
<!-- serial_tools_list_ports_windows&#45;&gt;serial_tools_list_ports -->
<g id="edge14" class="edge">
<title>serial_tools_list_ports_windows&#45;&gt;serial_tools_list_ports</title><style>.edge>path:hover{stroke-width:8}</style>
<path fill="none" stroke="black" d="M212.16,-275.38C206.99,-266.23 201.16,-255.93 195.71,-246.29"/>
<polygon fill="#ac4949" stroke="black" points="198.61,-244.29 190.64,-237.31 192.51,-247.74 198.61,-244.29"/>
</g>
<!-- waitforkey -->
<g id="node12" class="node">
<title>waitforkey</title><style>.edge>path:hover{stroke-width:8}</style>
<ellipse fill="#5353b6" stroke="black" cx="287.76" cy="-127" rx="40.06" ry="18"/>
<text text-anchor="middle" x="287.76" y="-124.5" font-family="Helvetica,sans-Serif" font-size="10.00" fill="#ffffff">waitforkey</text>
</g>
<!-- waitforkey&#45;&gt;streamQSB_py -->
<g id="edge15" class="edge">
<title>waitforkey&#45;&gt;streamQSB_py</title><style>.edge>path:hover{stroke-width:8}</style>
<path fill="none" stroke="black" d="M259.5,-114.02C243.55,-105.36 225.65,-91.86 219.76,-73"/>
</g>
</g>
</svg>
